<svg width="562" height="80" viewBox="0 0 562 80" fill="none" xmlns="http://www.w3.org/2000/svg">
    <g filter="url(#filter0_d)">
        <path d="M66.0114 71H51.4674L40.1874 44.264H26.1234V71H12.1554V1.592H41.4354C46.9714 1.592 51.4994 2.472 55.0194 4.232C58.5394 5.992 61.1314 8.44 62.7954 11.576C64.4594 14.68 65.2914 18.264 65.2914 22.328C65.2914 25.976 64.7314 29.064 63.6114 31.592C62.4914 34.088 61.0034 36.168 59.1474 37.832C57.2914 39.496 55.2754 40.856 53.0994 41.912L66.0114 71ZM38.9394 33.464C42.6834 33.464 45.6434 32.472 47.8194 30.488C50.0274 28.472 51.1314 25.864 51.1314 22.664C51.1314 19.496 50.0754 16.984 47.9634 15.128C45.8514 13.24 43.1794 12.296 39.9474 12.296H26.1234V33.464H38.9394ZM84.2791 71V1.592H131.943L131.895 13.4H98.3431V30.248H127.479V41.816H98.2471V59.048L132.423 59.096V71H84.2791ZM151.153 1.592C151.505 1.592 152.481 1.592 154.081 1.592C155.713 1.592 157.617 1.592 159.793 1.592C162.001 1.592 164.193 1.608 166.369 1.64C168.577 1.64 170.417 1.656 171.889 1.68799C180.305 1.88 187.153 3.384 192.433 6.2C197.745 9.016 201.649 12.952 204.145 18.008C206.641 23.064 207.889 29.048 207.889 35.96C207.889 43.16 206.577 49.384 203.953 54.632C201.329 59.848 197.313 63.88 191.905 66.728C186.529 69.576 179.697 71 171.409 71H151.153V1.592ZM165.265 12.92V59.672H171.697C175.665 59.672 179.265 58.904 182.497 57.368C185.761 55.832 188.369 53.32 190.321 49.832C192.273 46.344 193.249 41.688 193.249 35.864C193.249 27.768 191.329 21.928 187.489 18.344C183.681 14.728 178.481 12.92 171.889 12.92H165.265ZM217.297 71L242.161 1.592H256.945L281.761 71H267.793L262.129 54.92H237.169L231.361 71H217.297ZM240.289 42.68H258.769L249.601 15.128L240.289 42.68ZM322.36 0.631996C327.576 0.631996 332.216 1.688 336.28 3.8C340.376 5.88 343.672 8.728 346.168 12.344C348.696 15.96 350.184 20.04 350.632 24.584H335.944C335.272 20.968 333.768 17.992 331.432 15.656C329.096 13.32 325.928 12.152 321.928 12.152C317.064 12.152 313.24 13.976 310.456 17.624C307.704 21.24 306.328 27.336 306.328 35.912C306.328 44.552 307.704 50.808 310.456 54.68C313.24 58.52 317.064 60.44 321.928 60.44C325.928 60.44 329.096 59.112 331.432 56.456C333.768 53.768 335.272 50.616 335.944 47H350.632C350.216 50.296 349.416 53.448 348.232 56.456C347.048 59.464 345.368 62.136 343.192 64.472C341.016 66.776 338.216 68.6 334.792 69.944C331.4 71.288 327.256 71.96 322.36 71.96C315.896 71.96 310.312 70.456 305.608 67.448C300.904 64.44 297.272 60.216 294.712 54.776C292.184 49.336 290.92 42.984 290.92 35.72C290.92 28.424 292.184 22.168 294.712 16.952C297.24 11.704 300.84 7.672 305.512 4.856C310.216 2.04 315.832 0.631996 322.36 0.631996ZM361.291 14.072V1.592H416.827V14.072H396.331V71H382.267V14.072H361.291ZM431.679 71V1.592H479.343L479.295 13.4H445.743V30.248H474.879V41.816H445.647V59.048L479.823 59.096V71H431.679ZM552.409 71H537.865L526.585 44.264H512.521V71H498.553V1.592H527.833C533.369 1.592 537.897 2.472 541.417 4.232C544.937 5.992 547.529 8.44 549.193 11.576C550.857 14.68 551.689 18.264 551.689 22.328C551.689 25.976 551.129 29.064 550.009 31.592C548.889 34.088 547.401 36.168 545.545 37.832C543.689 39.496 541.673 40.856 539.497 41.912L552.409 71ZM525.337 33.464C529.081 33.464 532.041 32.472 534.217 30.488C536.425 28.472 537.529 25.864 537.529 22.664C537.529 19.496 536.473 16.984 534.361 15.128C532.249 13.24 529.577 12.296 526.345 12.296H512.521V33.464H525.337Z" fill="black" />
        <path d="M4.37936 41.24H557.593V47.96H4.37936V41.24Z" fill="black" />
    </g>
    <defs>
        <filter id="filter0_d" x="0.379364" y="0.631989" width="561.214" height="79.328" filterUnits="userSpaceOnUse" color-interpolation-filters="sRGB">
            <feFlood flood-opacity="0" result="BackgroundImageFix" />
            <feColorMatrix in="SourceAlpha" type="matrix" values="0 0 0 0 0 0 0 0 0 0 0 0 0 0 0 0 0 0 127 0" />
            <feOffset dy="4" />
            <feGaussianBlur stdDeviation="2" />
            <feColorMatrix type="matrix" values="0 0 0 0 0 0 0 0 0 0 0 0 0 0 0 0 0 0 0.25 0" />
            <feBlend mode="normal" in2="BackgroundImageFix" result="effect1_dropShadow" />
            <feBlend mode="normal" in="SourceGraphic" in2="effect1_dropShadow" result="shape" />
        </filter>
    </defs>
</svg>
