<svg width="444.32000732421875px" height="122.021240234375px" xmlns="http://www.w3.org/2000/svg" viewBox="27.839996337890625 13.9893798828125 444.32000732421875 122.021240234375" style="background: rgba(0, 0, 0, 0);" preserveAspectRatio="xMidYMid">
  <defs>
    <filter id="editing-jagged" x="-100%" y="-100%" width="300%" height="300%">
      <feTurbulence result="turb" baseFrequency="0.1" numOctaves="1" seed="1"></feTurbulence>
      <feDisplacementMap in="SourceGraphic" in2="turb" scale="10"></feDisplacementMap>
    </filter>
  </defs>
  <g filter="url(#editing-jagged)">
    <g transform="translate(94.64000916481018, 97.45718765258789)">
      <path d="M14.21 0L0.51 0L8.32-42.05L8.32-42.05Q14.66-42.75 23.90-42.75L23.90-42.75L23.90-42.75Q33.15-42.75 37.44-40.06L37.44-40.06L37.44-40.06Q41.73-37.38 41.73-31.97L41.73-31.97L41.73-31.97Q41.73-26.56 38.94-23.17L38.94-23.17L38.94-23.17Q36.16-19.78 31.36-18.69L31.36-18.69L31.36-18.69Q32.45-13.38 34.94-9.09L34.94-9.09L34.94-9.09Q37.25-5.06 39.94-3.78L39.94-3.78L39.94-3.78Q38.98-1.09 37.02 0.10L37.02 0.10L37.02 0.10Q35.07 1.28 32.29 1.28L32.29 1.28L32.29 1.28Q29.50 1.28 27.33-0.35L27.33-0.35L27.33-0.35Q25.15-1.98 23.42-4.99L23.42-4.99L23.42-4.99Q19.78-11.52 19.39-21.82L19.39-21.82L19.84-21.82L19.84-21.82Q24.58-21.95 26.94-24.42L26.94-24.42L26.94-24.42Q29.31-26.88 29.31-32.06L29.31-32.06L29.31-32.06Q29.31-38.53 23.87-38.78L23.87-38.78L22.46-38.78L22.46-38.78Q21.89-38.78 21.57-38.72L21.57-38.72L14.21 0ZM72-9.86L72-9.86L72-9.86Q73.22-8.32 73.22-5.82L73.22-5.82L73.22-5.82Q73.22-2.37 70.66-0.54L70.66-0.54L70.66-0.54Q68.10 1.28 64.06 1.28L64.06 1.28L64.06 1.28Q61.76 1.28 58.24 0.77L58.24 0.77L58.24 0.77Q51.33-0.32 49.22-0.32L49.22-0.32L49.22-0.32Q47.10-0.32 46.27-0.22L46.27-0.22L46.27-0.22Q45.44-0.13 44.10 0L44.10 0L51.97-42.24L79.55-42.24L79.55-42.24Q79.55-38.34 77.66-36.29L77.66-36.29L77.66-36.29Q75.78-34.24 72.06-34.24L72.06-34.24L72.06-34.24Q68.35-34.24 64.58-35.97L64.58-35.97L62.59-24.77L73.98-24.77L73.98-24.77Q73.98-21.38 72.32-19.49L72.32-19.49L72.32-19.49Q70.66-17.60 67.87-17.60L67.87-17.60L67.87-17.60Q65.09-17.60 63.36-18.24L63.36-18.24L63.36-18.24Q61.63-18.88 61.44-19.07L61.44-19.07L59.14-6.98L59.14-6.98Q60.67-6.78 63.55-6.78L63.55-6.78L63.55-6.78Q68.48-6.78 72-9.86ZM120.64-26.56L120.64-26.56L120.64-26.56Q120.64 0.70 91.07 0.70L91.07 0.70L91.07 0.70Q86.34 0.70 78.53-0.45L78.53-0.45L85.70-38.27L85.70-38.27Q86.21-40.83 86.53-42.30L86.53-42.30L86.53-42.30Q96.26-43.01 100.58-43.01L100.58-43.01L100.58-43.01Q104.90-43.01 108.86-42.11L108.86-42.11L108.86-42.11Q112.83-41.22 115.46-39.23L115.46-39.23L115.46-39.23Q120.64-35.33 120.64-26.56ZM107.46-28.93L107.46-28.93L107.46-28.93Q107.46-38.46 100.61-38.46L100.61-38.46L99.97-38.46L99.97-38.46Q99.65-38.46 99.33-38.40L99.33-38.40L92.74-4.03L92.74-4.03Q92.99-3.90 93.25-3.90L93.25-3.90L93.76-3.90L93.76-3.90Q96.13-3.90 98.59-5.38L98.59-5.38L98.59-5.38Q101.06-6.85 102.98-9.86L102.98-9.86L102.98-9.86Q107.46-16.83 107.46-28.93ZM151.55 1.28L151.55 1.28L151.55 1.28Q143.36 1.28 142.59-10.37L142.59-10.37L131.58-10.37L131.58-10.37Q130.30-7.42 129.41-4.86L129.41-4.86L127.74 0L118.78 0L138.94-42.24L152.70-42.24L155.39-11.14L155.39-11.14Q156.03-4.42 158.59-2.43L158.59-2.43L158.59-2.43Q156.74 1.28 151.55 1.28ZM137.09-23.17L133.57-15.04L142.40-15.04L141.63-31.49L141.63-33.22L137.09-23.17ZM195.01-13.25L195.01-13.25L195.01-13.25Q196.67-12.03 196.67-9.44L196.67-9.44L196.67-9.44Q196.67-6.85 195.55-5.02L195.55-5.02L195.55-5.02Q194.43-3.20 192.26-1.79L192.26-1.79L192.26-1.79Q187.58 1.22 179.42 1.22L179.42 1.22L179.42 1.22Q171.26 1.22 166.82-3.04L166.82-3.04L166.82-3.04Q162.37-7.30 162.37-14.85L162.37-14.85L162.37-14.85Q162.37-25.54 167.94-33.66L167.94-33.66L167.94-33.66Q172.16-39.68 179.71-42.24L179.71-42.24L179.71-42.24Q183.62-43.52 187.46-43.52L187.46-43.52L187.46-43.52Q191.30-43.52 193.66-43.01L193.66-43.01L193.66-43.01Q196.03-42.50 197.82-41.47L197.82-41.47L197.82-41.47Q201.73-39.23 201.73-35.65L201.73-35.65L201.73-35.65Q201.73-32.38 198.66-29.95L198.66-29.95L198.66-29.95Q195.84-27.78 193.54-27.78L193.54-27.78L193.54-27.78Q191.23-27.78 190.27-28.10L190.27-28.10L190.27-28.10Q190.53-30.40 190.53-31.90L190.53-31.90L190.53-31.90Q190.53-33.41 190.46-34.50L190.46-34.50L190.46-34.50Q190.40-35.58 190.08-36.61L190.08-36.61L190.08-36.61Q189.44-38.98 187.49-38.98L187.49-38.98L187.49-38.98Q185.54-38.98 183.58-37.15L183.58-37.15L183.58-37.15Q181.63-35.33 179.97-32.26L179.97-32.26L179.97-32.26Q176.19-25.28 176.19-17.02L176.19-17.02L176.19-17.02Q176.19-13.06 178.43-10.78L178.43-10.78L178.43-10.78Q180.67-8.51 185.47-8.51L185.47-8.51L185.47-8.51Q189.06-8.51 192.45-10.88L192.45-10.88L192.45-10.88Q193.92-11.90 195.01-13.25ZM207.10-31.17L207.10-31.17L207.10-31.17Q204.93-32.83 204.93-36.38L204.93-36.38L204.93-36.38Q204.93-39.94 207.26-41.79L207.26-41.79L207.26-41.79Q209.60-43.65 213.63-43.65L213.63-43.65L213.63-43.65Q216.19-43.65 222.27-42.75L222.27-42.75L226.62-42.11L226.62-42.11Q228.80-41.86 231.07-41.86L231.07-41.86L231.07-41.86Q233.34-41.86 234.88-42.82L234.88-42.82L234.88-42.82Q237.18-40.77 237.18-37.82L237.18-37.82L237.18-37.82Q237.18-34.88 234.56-32.77L234.56-32.77L234.56-32.77Q231.87-30.53 228.42-30.53L228.42-30.53L228.42-30.53Q226.75-30.53 224.06-30.98L224.06-30.98L224.06-30.98Q220.93-21.12 220.93-14.27L220.93-14.27L220.93-14.27Q220.93-7.42 224.38-3.84L224.38-3.84L224.38-3.84Q222.78-0.96 220.42 0.16L220.42 0.16L220.42 0.16Q218.05 1.28 214.50 1.28L214.50 1.28L214.50 1.28Q210.94 1.28 208.74-0.67L208.74-0.67L208.74-0.67Q206.53-2.62 206.53-6.66L206.53-6.66L206.53-6.66Q206.53-11.33 209.09-19.01L209.09-19.01L209.09-19.01Q211.65-26.62 215.49-32.45L215.49-32.45L215.49-32.45Q213.63-32.64 211.71-32.64L211.71-32.64L211.71-32.64Q207.74-32.64 207.10-31.17ZM262.46-9.86L262.46-9.86L262.46-9.86Q263.68-8.32 263.68-5.82L263.68-5.82L263.68-5.82Q263.68-2.37 261.12-0.54L261.12-0.54L261.12-0.54Q258.56 1.28 254.53 1.28L254.53 1.28L254.53 1.28Q252.22 1.28 248.70 0.77L248.70 0.77L248.70 0.77Q241.79-0.32 239.68-0.32L239.68-0.32L239.68-0.32Q237.57-0.32 236.74-0.22L236.74-0.22L236.74-0.22Q235.90-0.13 234.56 0L234.56 0L242.43-42.24L270.02-42.24L270.02-42.24Q270.02-38.34 268.13-36.29L268.13-36.29L268.13-36.29Q266.24-34.24 262.53-34.24L262.53-34.24L262.53-34.24Q258.82-34.24 255.04-35.97L255.04-35.97L253.06-24.77L264.45-24.77L264.45-24.77Q264.45-21.38 262.78-19.49L262.78-19.49L262.78-19.49Q261.12-17.60 258.34-17.60L258.34-17.60L258.34-17.60Q255.55-17.60 253.82-18.24L253.82-18.24L253.82-18.24Q252.10-18.88 251.90-19.07L251.90-19.07L249.60-6.98L249.60-6.98Q251.14-6.78 254.02-6.78L254.02-6.78L254.02-6.78Q258.94-6.78 262.46-9.86ZM282.69 0L268.99 0L276.80-42.05L276.80-42.05Q283.14-42.75 292.38-42.75L292.38-42.75L292.38-42.75Q301.63-42.75 305.92-40.06L305.92-40.06L305.92-40.06Q310.21-37.38 310.21-31.97L310.21-31.97L310.21-31.97Q310.21-26.56 307.42-23.17L307.42-23.17L307.42-23.17Q304.64-19.78 299.84-18.69L299.84-18.69L299.84-18.69Q300.93-13.38 303.42-9.09L303.42-9.09L303.42-9.09Q305.73-5.06 308.42-3.78L308.42-3.78L308.42-3.78Q307.46-1.09 305.50 0.10L305.50 0.10L305.50 0.10Q303.55 1.28 300.77 1.28L300.77 1.28L300.77 1.28Q297.98 1.28 295.81-0.35L295.81-0.35L295.81-0.35Q293.63-1.98 291.90-4.99L291.90-4.99L291.90-4.99Q288.26-11.52 287.87-21.82L287.87-21.82L288.32-21.82L288.32-21.82Q293.06-21.95 295.42-24.42L295.42-24.42L295.42-24.42Q297.79-26.88 297.79-32.06L297.79-32.06L297.79-32.06Q297.79-38.53 292.35-38.78L292.35-38.78L290.94-38.78L290.94-38.78Q290.37-38.78 290.05-38.72L290.05-38.72L282.69 0Z" fill="#444"></path>
    </g>
  </g>
  <style>text {
  font-size: 64px;
  font-family: Arial Black;
  dominant-baseline: central;
  text-anchor: middle;
  

}</style>
</svg>