<svg width="144" height="27" viewBox="0 0 144 27" fill="none" xmlns="http://www.w3.org/2000/svg">
  <g filter="url(#filter0_d)">
    <path d="M17.7528 18H14.1168L11.2968 11.316H7.78084V18H4.28884V0.647999H11.6088C12.9928 0.647999 14.1248 0.867999 15.0048 1.308C15.8848 1.748 16.5328 2.36 16.9488 3.144C17.3648 3.92 17.5728 4.816 17.5728 5.832C17.5728 6.744 17.4328 7.516 17.1528 8.148C16.8728 8.772 16.5008 9.292 16.0368 9.708C15.5728 10.124 15.0688 10.464 14.5248 10.728L17.7528 18ZM10.9848 8.616C11.9208 8.616 12.6608 8.368 13.2048 7.872C13.7568 7.368 14.0328 6.716 14.0328 5.916C14.0328 5.124 13.7688 4.496 13.2408 4.032C12.7128 3.56 12.0448 3.324 11.2368 3.324H7.78084V8.616H10.9848ZM22.3198 18V0.647999H34.2358L34.2238 3.6H25.8358V7.812H33.1198V10.704H25.8118V15.012L34.3558 15.024V18H22.3198ZM39.0382 0.647999C39.1262 0.647999 39.3702 0.647999 39.7702 0.647999C40.1782 0.647999 40.6542 0.647999 41.1982 0.647999C41.7502 0.647999 42.2982 0.651999 42.8422 0.659999C43.3942 0.659999 43.8542 0.663999 44.2222 0.671999C46.3262 0.719999 48.0382 1.096 49.3582 1.8C50.6862 2.504 51.6622 3.488 52.2862 4.752C52.9102 6.016 53.2222 7.512 53.2222 9.24C53.2222 11.04 52.8942 12.596 52.2382 13.908C51.5822 15.212 50.5782 16.22 49.2262 16.932C47.8822 17.644 46.1742 18 44.1022 18H39.0382V0.647999ZM42.5662 3.48V15.168H44.1742C45.1662 15.168 46.0662 14.976 46.8742 14.592C47.6902 14.208 48.3422 13.58 48.8302 12.708C49.3182 11.836 49.5622 10.672 49.5622 9.216C49.5622 7.192 49.0822 5.732 48.1222 4.836C47.1702 3.932 45.8702 3.48 44.2222 3.48H42.5662ZM55.5742 18L61.7902 0.647999H65.4862L71.6902 18H68.1982L66.7822 13.98H60.5422L59.0902 18H55.5742ZM61.3222 10.92H65.9422L63.6502 4.032L61.3222 10.92ZM81.84 0.407999C83.144 0.407999 84.304 0.671999 85.32 1.2C86.344 1.72 87.168 2.432 87.792 3.336C88.424 4.24 88.796 5.26 88.908 6.396H85.236C85.068 5.492 84.692 4.748 84.108 4.164C83.524 3.58 82.732 3.288 81.732 3.288C80.516 3.288 79.56 3.744 78.864 4.656C78.176 5.56 77.832 7.084 77.832 9.228C77.832 11.388 78.176 12.952 78.864 13.92C79.56 14.88 80.516 15.36 81.732 15.36C82.732 15.36 83.524 15.028 84.108 14.364C84.692 13.692 85.068 12.904 85.236 12H88.908C88.804 12.824 88.604 13.612 88.308 14.364C88.012 15.116 87.592 15.784 87.048 16.368C86.504 16.944 85.804 17.4 84.948 17.736C84.1 18.072 83.064 18.24 81.84 18.24C80.224 18.24 78.828 17.864 77.652 17.112C76.476 16.36 75.568 15.304 74.928 13.944C74.296 12.584 73.98 10.996 73.98 9.18C73.98 7.356 74.296 5.792 74.928 4.488C75.56 3.176 76.46 2.168 77.628 1.464C78.804 0.759999 80.208 0.407999 81.84 0.407999ZM91.5727 3.768V0.647999H105.457V3.768H100.333V18H96.8167V3.768H91.5727ZM109.17 18V0.647999H121.086L121.074 3.6H112.686V7.812H119.97V10.704H112.662V15.012L121.206 15.024V18H109.17ZM139.352 18H135.716L132.896 11.316H129.38V18H125.888V0.647999H133.208C134.592 0.647999 135.724 0.867999 136.604 1.308C137.484 1.748 138.132 2.36 138.548 3.144C138.964 3.92 139.172 4.816 139.172 5.832C139.172 6.744 139.032 7.516 138.752 8.148C138.472 8.772 138.1 9.292 137.636 9.708C137.172 10.124 136.668 10.464 136.124 10.728L139.352 18ZM132.584 8.616C133.52 8.616 134.26 8.368 134.804 7.872C135.356 7.368 135.632 6.716 135.632 5.916C135.632 5.124 135.368 4.496 134.84 4.032C134.312 3.56 133.644 3.324 132.836 3.324H129.38V8.616H132.584Z" fill="black" />
  </g>
  <defs>
    <filter id="filter0_d" x="0.288841" y="0.408005" width="143.063" height="25.832" filterUnits="userSpaceOnUse" color-interpolation-filters="sRGB">
      <feFlood flood-opacity="0" result="BackgroundImageFix" />
      <feColorMatrix in="SourceAlpha" type="matrix" values="0 0 0 0 0 0 0 0 0 0 0 0 0 0 0 0 0 0 127 0" />
      <feOffset dy="4" />
      <feGaussianBlur stdDeviation="2" />
      <feColorMatrix type="matrix" values="0 0 0 0 0 0 0 0 0 0 0 0 0 0 0 0 0 0 0.10 0" />
      <feBlend mode="normal" in2="BackgroundImageFix" result="effect1_dropShadow" />
      <feBlend mode="normal" in="SourceGraphic" in2="effect1_dropShadow" result="shape" />
    </filter>
  </defs>
</svg>
